<?xml version="1.0" encoding="iso-8859-1"?>
<!-- Uploaded to: SVG Repo, www.svgrepo.com, Generator: SVG Repo Mixer Tools -->
<svg version="1.1" id="Layer_1" xmlns="http://www.w3.org/2000/svg" xmlns:xlink="http://www.w3.org/1999/xlink" 
	 viewBox="0 0 512 512" xml:space="preserve">
<path style="fill:#93C7EF;" d="M301.176,45.176C301.176,20.226,280.949,0,256,0s-45.176,20.226-45.176,45.176
	c0,16.718,9.09,31.306,22.588,39.118v36.176h45.176V84.295C292.087,76.482,301.176,61.895,301.176,45.176z"/>
<g>
	<path style="fill:#5A8BB0;" d="M256,0v120.471h22.588V84.295c13.499-7.813,22.588-22.398,22.588-39.118
		C301.176,20.226,280.949,0,256,0z"/>
	<path style="fill:#5A8BB0;" d="M451.765,512c-45.669,0-82.824-37.155-82.824-82.824V323.765h45.176v105.412
		c0,20.759,16.888,37.647,37.647,37.647V512z"/>
</g>
<g>
	<path style="fill:#78B9EB;" d="M60.235,512c45.669,0,82.824-37.155,82.824-82.824V323.765H97.882v105.412
		c0,20.759-16.888,37.647-37.647,37.647V512z"/>
	<rect x="188.235" y="391.529" style="fill:#78B9EB;" width="45.176" height="120.471"/>
</g>
<rect x="278.588" y="391.529" style="fill:#5A8BB0;" width="45.176" height="120.471"/>
<path style="fill:#CCE9F9;" d="M414.118,421.647V263.529c0-87.326-70.792-158.118-158.118-158.118S97.882,176.203,97.882,263.529
	v158.118H414.118z"/>
<g>
	<path style="fill:#93C7EF;" d="M414.118,421.647V263.529c0-87.326-70.792-158.118-158.118-158.118c0,121.383,0,316.235,0,316.235
		H414.118z"/>
	<circle style="fill:#93C7EF;" cx="143.059" cy="263.529" r="67.765"/>
</g>
<circle style="fill:#3C5D76;" cx="143.059" cy="263.529" r="22.588"/>
<circle style="fill:#5A8BB0;" cx="368.941" cy="263.529" r="67.765"/>
<circle style="fill:#1E2E3B;" cx="368.941" cy="263.529" r="22.588"/>
<path style="fill:#3C5D76;" d="M210.824,316.235c0,24.949,20.227,45.176,45.176,45.176l0,0c24.949,0,45.176-20.227,45.176-45.176
	H210.824z"/>
<path style="fill:#1E2E3B;" d="M256,316.235v45.176c24.949,0,45.176-20.227,45.176-45.176H256z"/>
</svg>