<?xml version="1.0" encoding="iso-8859-1"?>
<!-- Uploaded to: SVG Repo, www.svgrepo.com, Generator: SVG Repo Mixer Tools -->
<svg height="800px" width="800px" version="1.1" id="Layer_1" xmlns="http://www.w3.org/2000/svg" xmlns:xlink="http://www.w3.org/1999/xlink" 
	 viewBox="0 0 512 512" xml:space="preserve">
<path style="fill:#FF634C;" d="M63.927,140.886c-5.375,12.991-2.688,28.669,8.064,38.973l5.824,5.375l5.824-5.375
	c10.751-10.751,13.439-25.982,8.064-38.973H63.927z"/>
<path style="fill:#4582FF;" d="M94.389,140.886c31.806-39.842,25.982-93.208-17.023-128.298l0,0
	c-43.005,34.724-48.828,88.455-17.023,128.298H94.389z"/>
<g>
	<path style="fill:#FFAF18;" d="M144.233,140.886l-30.086-64.149l-0.029,0.093c2.278,22.113-4.264,44.683-19.73,64.055h49.845
		V140.886z"/>
	<path style="fill:#FFAF18;" d="M40.604,76.797l-0.019-0.061l-30.086,64.149h49.844C44.901,121.541,38.356,98.925,40.604,76.797z"/>
</g>
<g>
	<path style="fill:#00315E;" d="M380.648,212.083L380.648,212.083c11.596,0,21.083,7.713,21.083,17.14v39.594
		c0,9.427-9.488,17.14-21.083,17.14l0,0V212.083z"/>
	<path style="fill:#00315E;" d="M131.404,285.956L131.404,285.956c-11.596,0-21.083-7.713-21.083-17.14v-39.594
		c0-9.427,9.488-17.14,21.083-17.14l0,0V285.956z"/>
</g>
<path style="fill:#FEBBA0;" d="M213.864,319.118v20.353c0,6.799-4.088,12.932-10.365,15.549l-67.241,28.017
	c-14.206,5.92-23.459,22.008-23.459,37.397v81.092h286.352v-81.092c0-15.389-9.254-31.479-23.459-37.397L308.45,355.02
	c-6.277-2.615-10.365-8.749-10.365-15.549v-20.353h-84.221V319.118z"/>
<path style="fill:#1990DF;" d="M375.691,383.036L308.45,355.02c-5.2-2.166-8.889-6.749-10.005-12.124
	c-8.884,14.064-24.556,23.413-42.42,23.413c-17.916,0-33.629-9.403-42.498-23.535c-1.085,5.427-4.789,10.063-10.029,12.247
	l-67.241,28.017c-14.206,5.92-23.459,22.008-23.459,37.397v81.092h286.352v-81.092C399.15,405.045,389.896,388.955,375.691,383.036z
	"/>
<path style="fill:#FEBBA0;" d="M369.899,177.079v19.162v56.708v21.169c-1.365,17.851-10.273,33.746-23.456,42.451l-68.338,39.185
	c-13.763,9.09-30.499,9.09-44.262,0l-68.543-39.185c-13.181-8.705-21.886-24.599-23.252-42.451v-21.169v-56.708v-19.162h0.445
	H369.899z"/>
<path style="fill:#1990DF;" d="M325.264,356.064c30.587,0,55.383-24.796,55.383-55.383v-75.698
	c0-71.663-49.889-119.563-111.43-119.563h-26.384c-61.541,0-111.43,47.901-111.43,119.563v75.698
	c0,30.587,24.796,55.383,55.383,55.383H325.264z M307.473,316.464h-101.45c-14.481,0-26.329-11.848-26.329-26.329v-76.41
	c0-14.481,11.848-26.329,26.329-26.329h101.45c14.481,0,26.329,11.848,26.329,26.329v76.41
	C333.802,304.616,321.954,316.464,307.473,316.464z"/>
<path d="M294.078,235.474c-6.439,0-11.679-5.239-11.679-11.678c0-6.44,5.24-11.679,11.679-11.679s11.678,5.239,11.678,11.679
	C305.755,230.235,300.517,235.474,294.078,235.474z"/>
<path d="M217.871,235.474c-6.439,0-11.678-5.239-11.678-11.678c0-6.44,5.239-11.679,11.678-11.679s11.679,5.239,11.679,11.679
	C229.549,230.235,224.31,235.474,217.871,235.474z"/>
<path d="M256.018,292.45c-11.39,0-20.658-9.267-20.658-20.658c0-5.77,4.679-10.448,10.448-10.448h20.419
	c5.769,0,10.448,4.678,10.448,10.448C276.675,283.182,267.409,292.45,256.018,292.45z"/>
<path d="M10.585,491.077h-0.137C4.679,491.077,0,495.755,0,501.525s4.679,10.448,10.448,10.448h0.137
	c5.769,0,10.448-4.678,10.448-10.448S16.354,491.077,10.585,491.077z"/>
<path d="M501.501,491.077h-0.137c-5.769,0-10.448,4.678-10.448,10.448s4.679,10.448,10.448,10.448h0.137
	c5.769,0,10.448-4.678,10.448-10.448S507.27,491.077,501.501,491.077z"/>
<path d="M384.179,15.693h-5.22v-5.22c0-5.77-4.679-10.448-10.448-10.448s-10.448,4.678-10.448,10.448v5.22h-5.22
	c-5.769,0-10.448,4.678-10.448,10.448s4.679,10.448,10.448,10.448h5.22v5.221c0,5.77,4.679,10.448,10.448,10.448
	s10.448-4.678,10.448-10.448v-5.221h5.22c5.769,0,10.448-4.678,10.448-10.448S389.948,15.693,384.179,15.693z"/>
<path d="M41.921,336.454h-5.22v-5.22c0-5.77-4.679-10.448-10.448-10.448s-10.448,4.678-10.448,10.448v5.22h-5.221
	c-5.769,0-10.448,4.678-10.448,10.448c0,5.77,4.679,10.448,10.448,10.448h5.221v5.221c0,5.77,4.679,10.448,10.448,10.448
	s10.448-4.678,10.448-10.448v-5.221h5.22c5.769,0,10.448-4.678,10.448-10.448C52.369,341.132,47.691,336.454,41.921,336.454z"/>
<path d="M472.294,399.86h-5.22v-5.22c0-5.77-4.679-10.448-10.448-10.448c-5.769,0-10.448,4.678-10.448,10.448v5.22h-5.22
	c-5.769,0-10.448,4.678-10.448,10.448c0,5.77,4.679,10.448,10.448,10.448h5.22v5.221c0,5.77,4.679,10.448,10.448,10.448
	c5.769,0,10.448-4.678,10.448-10.448v-5.221h5.22c5.769,0,10.448-4.678,10.448-10.448
	C482.742,404.537,478.063,399.86,472.294,399.86z"/>
<path d="M501.552,214.785h-5.22v-5.221c0-5.77-4.679-10.448-10.448-10.448c-5.769,0-10.448,4.678-10.448,10.448v5.221h-5.22
	c-5.769,0-10.448,4.678-10.448,10.448s4.679,10.448,10.448,10.448h5.22v5.22c0,5.77,4.679,10.448,10.448,10.448
	c5.769,0,10.448-4.678,10.448-10.448v-5.22h5.22c5.769,0,10.448-4.678,10.448-10.448S507.321,214.785,501.552,214.785z"/>
<path d="M293.024,326.912c28.246,0,51.226-22.98,51.226-51.226v-47.51c0-28.246-22.98-51.226-51.226-51.226h-72.549
	c-28.246,0-51.226,22.98-51.226,51.226v47.51c0,28.247,22.98,51.226,51.226,51.226H293.024z M190.143,275.686v-47.51
	c0-16.724,13.606-30.33,30.33-30.33h72.549c16.725,0,30.33,13.606,30.33,30.33v47.51c0,16.724-13.605,30.33-30.33,30.33h-72.549
	C203.75,306.016,190.143,292.41,190.143,275.686z"/>
<path d="M467.562,491.077h-57.964v-70.644c0-20.366-12.291-39.709-29.887-47.042l-28.898-12.04
	c23.647-9.996,40.284-33.426,40.284-60.67v-5.841c12.265-3.781,21.083-14.016,21.083-26.024v-39.594
	c0-12.524-9.59-23.117-22.68-26.474c-4.055-27.855-15.758-52.773-33.963-71.671c-22.43-23.284-53.085-36.108-86.318-36.108h-26.383
	c-33.234,0-63.888,12.823-86.318,36.108c-18.206,18.898-29.908,43.816-33.963,71.671c-13.09,3.356-22.68,13.95-22.68,26.474v39.594
	c0,12.008,8.817,22.243,21.083,26.024v5.841c0,27.225,16.612,50.642,40.232,60.65l-28.948,12.062
	c-17.597,7.332-29.887,26.677-29.887,47.041v70.644H44.388c-5.769,0-10.448,4.678-10.448,10.448c0,5.77,4.679,10.448,10.448,10.448
	h423.176c5.769,0,10.448-4.678,10.448-10.448C478.012,495.756,473.331,491.077,467.562,491.077z M120.956,269.931
	c-0.119-0.373-0.187-0.746-0.187-1.115v-39.594c0-0.369,0.068-0.742,0.187-1.115V269.931z M391.282,268.816
	c0,0.369-0.068,0.742-0.187,1.115v-41.823c0.119,0.372,0.187,0.746,0.187,1.115V268.816z M141.852,300.682v-75.699
	c0-63.226,42.469-109.116,100.982-109.116h26.383c58.514,0,100.982,45.889,100.982,109.116v75.699
	c0,24.777-20.158,44.936-44.936,44.936H186.786C162.009,345.616,141.852,325.459,141.852,300.682z M245.578,491.077H123.247v-70.644
	c0-8.692,3.994-17.457,9.987-23.085c19.655,23.612,62.67,39.591,112.344,41.568V491.077z M152.623,387.536l50.458-21.024h105.786
	l50.529,21.054c-16.847,16.238-54.426,30.668-103.372,30.668C207.04,418.233,169.454,403.79,152.623,387.536z M388.702,491.077
	H266.474v-52.16c49.627-1.976,92.624-17.933,112.299-41.514c5.961,5.629,9.931,14.366,9.931,23.03v70.644H388.702z"/>
<path d="M153.692,136.45l-29.376-62.637c-0.006-0.053-0.011-0.107-0.018-0.161C121.021,47.599,106.7,23.038,83.971,4.492
	c-3.83-3.125-9.325-3.138-13.169-0.033c-23.598,19.054-37.276,43.799-40.422,69.43L1.04,136.45
	c-1.518,3.236-1.276,7.023,0.642,10.04c1.917,3.016,5.244,4.844,8.817,4.844h40.423c-0.873,13.28,4.015,26.653,13.838,36.067
	c0.047,0.045,0.095,0.09,0.143,0.134l5.824,5.375c2.001,1.847,4.544,2.771,7.086,2.771c2.542,0,5.085-0.924,7.086-2.771l5.824-5.375
	c0.103-0.094,0.203-0.191,0.302-0.289c9.744-9.745,14.538-22.863,13.688-35.913h39.518c3.574,0,6.9-1.827,8.817-4.844
	C154.967,143.473,155.21,139.685,153.692,136.45z M77.332,26.503c30.722,29.562,35.563,70.726,11.86,103.935H65.539
	C53.781,113.985,49.004,95.64,50.862,77.744h29.291c5.769,0,10.448-4.678,10.448-10.448s-4.679-10.448-10.448-10.448H56.161
	C60.635,45.984,67.717,35.671,77.332,26.503z M34.344,114.648c1.74,5.354,3.966,10.632,6.691,15.79H26.939L34.344,114.648z
	 M77.781,170.812c-4.664-5.322-6.768-12.485-5.9-19.478h11.887C84.644,158.237,82.546,165.214,77.781,170.812z M113.675,130.438
	c2.704-5.139,4.938-10.436,6.688-15.842l7.43,15.842H113.675z"/>
<path d="M77.366,247.99c-5.769,0-10.448-4.678-10.448-10.448v-27.977c0-5.77,4.679-10.448,10.448-10.448
	c5.769,0,10.448,4.678,10.448,10.448v27.977C87.814,243.312,83.135,247.99,77.366,247.99z"/>
<path d="M44.32,221.337c-5.769,0-10.448-4.678-10.448-10.448v-27.977c0-5.77,4.679-10.448,10.448-10.448s10.448,4.678,10.448,10.448
	v27.976C54.768,216.659,50.089,221.337,44.32,221.337z"/>
<path d="M110.412,201.67c-5.769,0-10.448-4.678-10.448-10.448v-8.31c0-5.77,4.679-10.448,10.448-10.448
	c5.769,0,10.448,4.678,10.448,10.448v8.31C120.86,196.992,116.181,201.67,110.412,201.67z"/>
<path d="M188.985,171.241c-2.664,0-5.328-1.012-7.367-3.038c-4.091-4.068-4.111-10.684-0.043-14.775l0.394-0.389
	c4.138-4.021,10.754-3.924,14.774,0.215s3.923,10.754-0.216,14.774l-0.133,0.132C194.354,170.213,191.668,171.241,188.985,171.241z"
	/>
<path d="M323.066,171.241c-2.66,0-5.319-1.008-7.356-3.029c-13.094-12.985-30.809-20.135-49.883-20.135h-19.602
	c-9.86,0-19.3,1.865-28.061,5.542c-5.32,2.235-11.445-0.27-13.677-5.591c-2.234-5.32,0.271-11.444,5.591-13.676
	c11.336-4.758,23.497-7.169,36.149-7.169h19.602c24.622,0,47.562,9.303,64.595,26.194c4.098,4.063,4.125,10.678,0.063,14.775
	C328.441,170.21,325.753,171.241,323.066,171.241z"/>
</svg>