<?xml version="1.0" encoding="utf-8"?>
<!-- Uploaded to: SVG Repo, www.svgrepo.com, Generator: SVG Repo Mixer Tools -->
<svg version="1.1" id="Uploaded to svgrepo.com" xmlns="http://www.w3.org/2000/svg" xmlns:xlink="http://www.w3.org/1999/xlink" 
	 width="800px" height="800px" viewBox="0 0 64 64" xml:space="preserve">
<style type="text/css">
	.fandom_drie{fill:#BE9148;}
	.fandom_vier{fill:#FFC865;}
	.fandom_zeven{fill:#508D9B;}
	.fandom_acht{fill:#6BC4D2;}
	.fandom_dertien{fill:#AA9991;}
	.fandom_veertien{fill:#EFEAE0;}
	.fandom_vijftien{fill:#3A3A3A;}
	.fandom_zestien{fill:#4D4D4D;}
	.fandom_negentien{fill:#CCCCCC;}
	.st0{fill:#4B322A;}
	.st1{fill:#BE5652;}
	.st2{fill:#FF786E;}
	.st3{fill:#644638;}
	.st4{fill:#8579A3;}
	.st5{fill:#685683;}
	.st6{fill:#00B3AA;}
	.st7{fill:#018273;}
	.st8{fill:#808080;}
	.st9{fill:#666666;}
	.st10{fill:#FFFAFA;}
</style>
<g>
	<g>
		<path class="fandom_vier" d="M32,7C18.193,7,7,18.193,7,32h50C57,18.193,45.807,7,32,7z"/>
		<path class="fandom_drie" d="M32,57c13.807,0,25-11.193,25-25H7C7,45.807,18.193,57,32,57z"/>
	</g>
	<g>
		<path class="fandom_veertien" d="M11.105,11.184c-0.203-0.768,0.619-1.397,1.309-1.004l3.885,2.214
			c2.06-1.519,4.779-1.503,7.028-0.554l2.927-3.15c0.574-0.607,1.592-0.167,1.544,0.667l-0.106,6.222
			c1.805,2.243,1.989,4.871,1.51,6.2c-0.479-0.011-0.664,0.284-0.797,0.682c-0.176,0.527-1.772,4.009-2.147,5.084
			c0.141-0.403-1.244-1.316-1.534-1.451c-9.766-4.573-10.118-3.511-11.196-2.919c-1.453-1.431-1.318-3.509-0.588-5.396
			L11.105,11.184z M44.306,29.924c-2.241-0.023-4.364-0.095-6.412-0.176c-0.187,0.01-0.067,0.016,0.121,0.099
			c0.135,0.059,0.25,0.304,0.264,0.461c0.124,0.958-0.376,3.912-1.212,5.226c-0.218,0.343-0.53,0.555-0.901,0.686
			c0.877,0.041,3.06-0.198,4.856-0.236c0.347,2.187,3.582,3.834,5.657,1.674C49.054,35.185,48.023,29.962,44.306,29.924z
			 M52.054,30.503c-0.204-5.936-6.931-5.955-12.525-5.769c0.348,0.51,0.243,3.341-0.593,4.683c-0.301,0.483-1.047,0.222-1.267,0.299
			c0.278,0.1,6.341,0.204,6.636,0.207c2.189,0.022,3.446,1.842,3.625,3.84C49.77,34.191,52.14,33,52.054,30.503z"/>
		<path class="fandom_acht" d="M39.529,24.735c-0.362-0.529-1.245-0.559-1.814-0.593c-1.632-0.1-5.361-0.766-8.319-2.316
			c-0.314-0.165-0.78,0.005-0.991,0.635c-0.176,0.527-1.772,4.009-2.147,5.084c0.141-0.403-1.242-1.319-1.534-1.451
			c-8.654-3.92-9.743-3.698-11.028-3.011C-2.208,31.582,3.18,50.66,2.404,46.952c0-1.578,1.103-2.078,2.164-1.741
			c0.025-0.065,0.642-5.096,0.969-6.548c0.179-0.797,1.081-1.426,1.883-0.995c1.226,0.66,3.179,2.242,3.785,0.026
			c0.085-1.294-0.169-2.677-0.432-4.145c-0.18-1,1.069-2.661,3.018,0.179c0.603,0.879,1.87,3.016,2.883,1.377
			c0.77-1.245,0.417-3.085,1.792-3.983c1.078-0.704,3.267-0.322,4.396-0.191c0.001,0,15.185,1.759,15.185,1.759
			c0.115-0.669,0.317-1.712,0.231-2.383c0,0-0.025-0.293-0.243-0.451c-0.026-0.019-0.254-0.091-0.254-0.091
			c0.22-0.077,0.855,0.135,1.156-0.348C39.772,28.076,39.878,25.244,39.529,24.735z"/>
		<path class="fandom_zeven" d="M29.91,28.971c-1.215-0.114-1.051-1.955,0.174-1.842l9.391,0.886
			c-0.126,0.529-0.303,1.025-0.538,1.403c-0.131,0.211-0.326,0.289-0.522,0.317C38.415,29.735,35.967,29.544,29.91,28.971z
			 M22.862,30.932c-1-0.116-2.037-0.292-3.045-0.199c-0.446,0.041-0.969,0.141-1.351,0.39c-1.375,0.898-1.023,2.738-1.792,3.983
			c-1.013,1.639-2.28-0.498-2.883-1.377c-1.949-2.84-3.198-1.179-3.018-0.179c0.264,1.468,0.517,2.851,0.432,4.145
			c-0.606,2.215-2.559,0.633-3.785-0.026c-0.802-0.431-1.703,0.198-1.883,0.995c-0.327,1.452-0.944,6.482-0.969,6.548
			c-0.029-0.009-0.771-0.274-1.484,0.155c-0.356,0.214-0.68,0.589-0.68,1.586c0.164,0.779,0.387,1.464,0.682,1.763
			c0.411,0.608,1.351,0.058,2.091-0.502c5.412-5.23,20.256-11.753,21.942-11.725c0,0,1.595-0.01,6.037-0.082
			c1.481-0.024,3.197,0.248,3.91-0.872c0.498-0.783,0.797-1.861,0.981-2.843C38.047,32.69,22.863,30.932,22.862,30.932z"/>
		<path class="fandom_negentien" d="M50.421,26.696c0.968,0.865,1.574,2.088,1.633,3.807c0.086,2.497-2.284,3.688-4.124,3.26
			c0.125,1.395-0.275,2.877-1.252,3.894c-2.076,2.16-5.31,0.513-5.657-1.674c-0.248,0.005-5.044,0.305-4.835,0.229
			c-0.842,0.305-1.993,0.177-3.029,0.194c-4.438,0.072-6.037,0.082-6.037,0.082c-1.685-0.027-16.529,6.496-21.942,11.725
			c-0.126,0.095-0.257,0.19-0.391,0.279l7.823,6.439l51.379-23.135L50.421,26.696z"/>
		<path class="fandom_vijftien" d="M63.988,31.796l-2.051-0.781L10.825,53.451l-6.004-4.98C4.547,48.655,4.263,48.816,4,48.906
			l0,2.053l8.562,7.312L64,35.021L63.988,31.796z"/>
		<polygon class="fandom_zestien" points="64,31.796 64,35.021 12.562,58.271 12.61,54.931 		"/>
		<path class="fandom_dertien" d="M11.105,11.184c-0.126-0.434,0.083-0.768,0.374-0.955c1.771,2.667,2.839,3.588,3.537,5.69
			c2.609,7.851,8.438,6.114,12,9.774c0,0-0.623,1.464-0.759,1.852c0.141-0.403-1.242-1.319-1.534-1.451
			c-8.891-4.027-9.763-3.707-11.197-2.919c-1.453-1.431-1.317-3.51-0.588-5.396L11.105,11.184z M44.27,36.522
			c-0.989-0.756-1.431-1.71-1.711-2.091c-0.437-0.597-1.13-1.016-1.826-1.234c-0.914-0.287-1.748-0.325-2.686-0.505
			c-0.184,0.983-0.483,2.06-0.981,2.843c-0.246,0.387-0.611,0.607-1.045,0.732l5-0.283c0.347,2.187,3.582,3.834,5.657,1.674
			c0.102-0.106,0.189-0.223,0.278-0.338C46.906,37.344,45.359,37.156,44.27,36.522z M38.415,29.735
			c2.52,0.106,2.788,0.158,5.891,0.189c1.456,0.015,2.5,0.825,3.089,1.954c0.258,0.481,0.471,1.152,0.536,1.885
			c0.515,0.119,1.103,0.119,1.691-0.037c-0.018-0.43-0.061-0.847-0.134-1.236c-0.447-2.39-2.502-4.143-4.998-4.263
			c-2.159-0.104-3.779-0.177-5.011-0.226c-0.112,0.472-0.283,1-0.541,1.415C38.806,29.628,38.611,29.707,38.415,29.735z"/>
	</g>
</g>
</svg>